<?xml version="1.0" encoding="iso-8859-1"?>
<!-- Generator: Adobe Illustrator 19.0.0, SVG Export Plug-In . SVG Version: 6.00 Build 0)  -->
<svg xmlns="http://www.w3.org/2000/svg" xmlns:xlink="http://www.w3.org/1999/xlink" version="1.1" id="Capa_1" x="0px" y="0px" viewBox="0 0 512.002 512.002" style="enable-background:new 0 0 512.002 512.002;" xml:space="preserve" width="512px" height="512px">
<g>
	<g>
		<g>
			<path d="M439.718,382.232l-17.027-46.783c-1.417-3.893-5.722-5.899-9.613-4.482c-3.893,1.417-5.899,5.721-4.483,9.613     l17.027,46.783c3.165,8.694,2.754,18.1-1.156,26.485c-3.91,8.386-10.852,14.746-19.545,17.909l-173.439,63.127     c-17.945,6.533-37.863-2.754-44.396-20.702l-36.337-99.835c44.865-2.399,87.872-25.214,129.563-47.346     c38.613-20.498,75.186-39.899,108.677-40.291l7.426,20.402c1.109,3.045,3.985,4.937,7.048,4.937c0.852,0,1.718-0.147,2.564-0.454     c3.893-1.417,5.899-5.721,4.483-9.613l-9.195-25.263c-0.007-0.019-0.014-0.039-0.021-0.058l-47.732-131.14l8.46-5.868     l21.873,15.174c2.323,1.611,5.05,2.432,7.79,2.432c2.019,0,4.045-0.445,5.922-1.35c4.424-2.13,7.375-6.496,7.703-11.395     l1.775-26.561l25.499-7.643c4.704-1.408,8.305-5.258,9.398-10.045c1.093-4.787-0.481-9.817-4.107-13.128L418.216,69.19     l9.925-24.701c1.831-4.556,1.066-9.771-1.995-13.609c-3.062-3.839-7.974-5.746-12.824-4.974l-26.291,4.18L373.906,6.925     C371.485,2.653,366.932,0,362.023,0c-4.91,0-9.463,2.653-11.885,6.926l-13.124,23.16l-26.29-4.18     c-4.849-0.771-9.763,1.135-12.825,4.973c-3.061,3.839-3.827,9.054-1.996,13.61l9.926,24.701l-4.979,4.546     c-2.633-1.279-5.319-2.444-8.047-3.449L206.56,38.491c-28.736-10.591-60.623,0.993-75.863,27.547     c-17.688-2.769-36.865-2.293-56.079,3.451c-3.969,1.186-6.224,5.364-5.038,9.333c1.187,3.97,5.366,6.233,9.334,5.038     c14.755-4.409,29.65-5.189,43.673-3.642l-20.173,35.279c-2.056,3.596-0.808,8.177,2.788,10.233     c1.174,0.672,2.454,0.99,3.716,0.99c2.602,0,5.133-1.356,6.517-3.778l22.864-39.984c3.423,0.816,6.764,1.751,10,2.792     c-1.704,6.855-1.46,14.269,1.132,21.391c5.43,14.917,19.564,24.196,34.59,24.196c4.166,0,8.404-0.714,12.54-2.22     c19.053-6.936,28.912-28.077,21.977-47.131c-6.936-19.053-28.08-28.912-47.13-21.977c-6.762,2.461-12.359,6.718-16.464,12.03     c-2.8-0.952-5.667-1.832-8.594-2.632c12.357-17.241,34.72-24.325,55.023-16.842l86.245,31.796     c0.375,0.138,0.745,0.293,1.118,0.438l-2.563,2.34c-3.627,3.311-5.201,8.341-4.108,13.128c1.093,4.787,4.694,8.637,9.396,10.045     l25.5,7.643l1.775,26.561c0.328,4.899,3.279,9.266,7.703,11.395c4.423,2.132,9.678,1.716,13.713-1.083l0.668-0.463l42.774,117.52     c-35.466,2.129-71.92,21.49-110.313,41.871c-41.694,22.132-84.757,44.95-127.922,45.778L92.771,215.055     c-7.419-20.379-5.498-42.866,5.268-61.694c2.056-3.596,0.808-8.178-2.788-10.233c-3.597-2.058-8.177-0.81-10.234,2.788     c-12.961,22.665-15.273,49.736-6.343,74.271l94.314,259.128c4.535,12.459,13.65,22.406,25.666,28.01     c6.673,3.112,13.798,4.677,20.948,4.677c5.725,0,11.467-1.003,17.007-3.02l173.438-63.127     c12.46-4.534,22.406-13.649,28.01-25.666C443.664,408.171,444.253,394.691,439.718,382.232z M162.478,91.211     c6.501,2.937,12.341,6.211,17.307,9.566c1.287,0.869,2.747,1.286,4.191,1.286c2.408,0,4.772-1.157,6.222-3.303     c2.319-3.432,1.416-8.094-2.016-10.413c-5.421-3.662-11.596-7.17-18.352-10.325c1.93-1.655,4.181-2.999,6.708-3.919     c2.45-0.892,4.958-1.314,7.425-1.314c8.896,0,17.266,5.496,20.48,14.327c4.106,11.281-1.731,23.799-13.013,27.904     c-11.281,4.105-23.798-1.73-27.904-13.013C162.223,98.431,161.924,94.73,162.478,91.211z M333.543,141.154l-1.68-25.129     c-0.378-5.655-4.28-10.548-9.708-12.174l-24.125-7.23l9.118-8.325c0.016-0.014,0.031-0.028,0.047-0.043l9.434-8.613     c4.186-3.82,5.579-9.921,3.466-15.181l-9.391-23.369l24.873,3.954c5.6,0.89,11.236-1.826,14.029-6.757l12.417-21.911     l12.417,21.911c2.793,4.932,8.433,7.646,14.029,6.757l24.873-3.954L403.95,64.46c-2.113,5.26-0.72,11.36,3.465,15.181     l18.599,16.98l-24.124,7.229c-5.429,1.626-9.331,6.519-9.709,12.174l-1.679,25.129l-20.693-14.354     c-2.329-1.615-5.058-2.423-7.786-2.423c-2.729,0-5.457,0.808-7.786,2.423L333.543,141.154z" fill="#ec206b"/>
			<path d="M290.41,124.156c-3.239-4.005-8.232-6.085-13.348-5.575c-71.184,7.135-101.583,41.78-114.551,69.588     c-13.022,27.925-6.667,59.772,13.528,79.204c-6.303,17.211-8.524,30.559-7.812,46.236c0.367,8.07,5.146,15.206,12.471,18.621     c2.846,1.326,5.983,2.018,9.132,2.018c0.325,0,0.651-0.008,0.977-0.022c5.77-0.262,11.092-2.755,14.986-7.02     c3.895-4.265,5.895-9.791,5.632-15.559c-0.411-9.068,0.73-16.536,4.246-26.703c1.456,0.101,2.915,0.169,4.378,0.169     c8.161,0,16.393-1.566,24.346-4.707c16.793-6.632,30.343-19.51,38.155-36.263c11.733-25.162,9.884-44.222,8.096-62.652     c-1.364-14.054-2.652-27.327,2.423-43.135C294.639,133.465,293.645,128.156,290.41,124.156z M196.44,312.328     c0.08,1.767-0.532,3.459-1.725,4.765c-1.192,1.306-2.822,2.069-4.591,2.149c-1.082,0.048-2.12-0.154-3.088-0.607     c-2.247-1.047-3.713-3.234-3.826-5.708c-0.556-12.231,1.001-22.954,5.424-36.156c1.471,0.836,2.972,1.636,4.53,2.362     c2.497,1.165,5.049,2.139,7.635,2.963C197.179,293.14,195.968,301.936,196.44,312.328z M278.786,133.772     c-6.021,18.757-4.521,34.218-3.07,49.169c1.667,17.184,3.242,33.413-6.761,54.863c-6.183,13.261-16.863,23.435-30.07,28.65     c-8.818,3.483-18.052,4.456-26.916,2.961c-0.048-0.009-0.096-0.014-0.144-0.022c-4.221-0.725-8.359-2.005-12.323-3.854     c-25.598-11.938-36.094-43.802-23.396-71.031c16.236-34.818,51.663-55.912,102.453-61.002c0.016-0.002,0.031-0.004,0.046-0.004     c0.045,0,0.085,0.015,0.142,0.086C278.818,133.676,278.806,133.71,278.786,133.772z" fill="#ec206b"/>
			<path d="M225.344,386.983c-3.892,1.417-5.899,5.721-4.482,9.613l3.472,9.538c1.109,3.045,3.985,4.936,7.048,4.936     c0.852,0,1.718-0.147,2.565-0.454c3.892-1.417,5.899-5.721,4.482-9.613l-3.472-9.538     C233.539,387.573,229.235,385.566,225.344,386.983z" fill="#ec206b"/>
			<path d="M297.146,374.867c-1.446,3.754-4.437,6.693-8.204,8.065c-3.768,1.372-7.947,1.041-11.469-0.904     c-3.625-2.005-8.188-0.688-10.192,2.937c-2.003,3.626-0.689,8.188,2.937,10.192c4.335,2.396,9.151,3.61,13.989,3.61     c3.329,0,6.669-0.576,9.866-1.739c7.843-2.855,14.065-8.966,17.071-16.766c1.489-3.865-0.437-8.206-4.302-9.695     C302.978,369.079,298.635,371.003,297.146,374.867z" fill="#ec206b"/>
			<path d="M340.264,345.155c-3.893,1.417-5.899,5.721-4.483,9.613l3.472,9.539c1.108,3.046,3.984,4.936,7.048,4.936     c0.852,0,1.718-0.147,2.564-0.454c3.893-1.417,5.899-5.721,4.483-9.613l-3.472-9.539     C348.461,345.745,344.154,343.739,340.264,345.155z" fill="#ec206b"/>
			<path d="M243.298,159.71c-12.506,10.23-35.255,48.974-43.979,79.607c-1.134,3.983,1.176,8.133,5.159,9.267     c0.687,0.196,1.378,0.289,2.058,0.289c3.266,0,6.27-2.15,7.21-5.448c3.808-13.372,10.711-29.202,19.439-44.577     c8.411-14.815,15.91-24.501,19.609-27.528c3.206-2.622,3.679-7.348,1.057-10.554C251.229,157.559,246.502,157.085,243.298,159.71     z" fill="#ec206b"/>
		</g>
	</g>
</g>
<g>
</g>
<g>
</g>
<g>
</g>
<g>
</g>
<g>
</g>
<g>
</g>
<g>
</g>
<g>
</g>
<g>
</g>
<g>
</g>
<g>
</g>
<g>
</g>
<g>
</g>
<g>
</g>
<g>
</g>
</svg>
